#!OML:ASF E:\pregnant2\Project 1\Capture day 1\Session 1\pregnant2.ASF
:FULLY-SPECIFIED
:DEGREES
1255
root -8.10279 17.1906 20.0753 -503.912 69.0084 548.599
lowerback -16.7431 -0.168813 3.14783
upperback -14.6593 1.03537 0.895023
thorax -6.45424 0.991722 -0.773605
lowerneck -13.7229 -8.01846 -8.05592
upperneck 32.1996 -9.69299 3.51083
head 13.8214 -4.35853 1.30601
rclavicle 7.45132e-014 7.56624e-014
rhumerus -63.293 31.1117 -106.89
rradius 82.2013
rwrist 0.61406
rhand -4.39023 -9.07264
rfingers 7.12502
rthumb 201.379 142.087
lclavicle 7.45132e-014 7.56624e-014
lhumerus -65.3799 -30.6158 104.315
lradius 83.513
lwrist 17.0755
lhand 2.1422 24.5447
lfingers 7.12502
lthumb 207.641 -127.466
rfemur -38.5382 13.152 25.3646
rtibia 27.5782
rfoot -16.2095 -17.1492
rtoes 10.4047
lfemur -56.0085 1.21489 -11.3171
ltibia 44.0127
lfoot -9.56003 19.4482
ltoes -11.0367
1256
root -8.05053 17.2043 20.0274 -503.717 69.0806 548.54
lowerback -16.9212 -0.141579 3.25905
upperback -14.7606 1.07394 0.806384
thorax -6.47647 1.00549 -0.925563
lowerneck -13.8011 -7.9845 -7.98454
upperneck 32.3094 -9.62597 3.41836
head 13.871 -4.32907 1.26665
rclavicle -1.42007e-014 -4.86277e-014
rhumerus -63.5282 31.3018 -107.397
rradius 81.8498
rwrist -0.106464
rhand -3.91456 -9.36828
rfingers 7.12502
rthumb 201.836 141.844
lclavicle -1.42007e-014 -4.86277e-014
lhumerus -65.4444 -30.7241 104.558
lradius 83.0375
lwrist 16.0933
lhand 1.92076 24.397
lfingers 7.12502
lthumb 207.429 -127.58
rfemur -38.3749 13.1335 25.2063
rtibia 27.1702
rfoot -16.1699 -17.122
rtoes 10.1627
lfemur -56.1812 0.484277 -10.4986
ltibia 42.1394
lfoot -9.17961 19.5643
ltoes -10.8819
1257
root -7.99789 17.2192 19.9778 -503.55 69.1379 548.453
lowerback -17.1071 -0.114905 3.38594
upperback -14.8594 1.10933 0.713396
thorax -6.49223 1.01605 -1.09111
lowerneck -13.8871 -7.9549 -7.91929
upperneck 32.4216 -9.56503 3.33081
head 13.9248 -4.30227 1.22881
rclavicle 1.39274e-014 1.90833e-014
rhumerus -63.7923 31.4561 -107.923
rradius 81.6375
rwrist -1.98861
rhand -3.74055 -10.0752
rfingers 7.12502
rthumb 202.003 141.156
lclavicle 1.39274e-014 1.90833e-014
lhumerus -65.5124 -30.8277 104.8
lradius 82.6152
lwrist 15.4223
lhand 1.73215 24.3128
lfingers 7.12502
lthumb 207.248 -127.636
rfemur -38.1853 13.0888 25.0445
rtibia 26.7208
rfoot -16.1153 -17.0842
rtoes 9.87889
lfemur -56.3144 -0.302813 -9.63192
ltibia 40.2161
lfoot -8.75424 19.6552
ltoes -10.8221
1258
root -7.94494 17.2354 19.9268 -503.414 69.1819 548.34
lowerback -17.2946 -0.0869894 3.52379
upperback -14.9536 1.14396 0.614651
thorax -6.50216 1.02471 -1.26894
lowerneck -13.9803 -7.92942 -7.85106
upperneck 32.5292 -9.51089 3.24286
head 13.9786 -4.27829 1.18873
rclavicle 3.40419e-015 2.98674e-014
rhumerus -64.0431 31.5291 -108.409
rradius 81.5588
rwrist -4.8129
rhand -3.7648 -11.0472
rfingers 7.12502
rthumb 201.98 140.182
lclavicle 3.40419e-015 2.98674e-014
lhumerus -65.5808 -30.9293 105.041
lradius 82.2649
lwrist 15.1118
lhand 1.55891 24.2957
lfingers 7.12502
lthumb 207.083 -127.627
rfemur -37.9647 13.027 24.8782
rtibia 26.2288
rfoot -16.0508 -17.0466
rtoes 9.57885
lfemur -56.4063 -1.17305 -8.69385
ltibia 38.2531
lfoot -8.30568 19.7546
ltoes -10.8394
1259
root -7.89185 17.252 19.875 -503.294 69.2178 548.215
lowerback -17.4777 -0.0622698 3.66196
upperback -15.0448 1.1736 0.517124
thorax -6.5114 1.03056 -1.44628
lowerneck -14.0821 -7.90483 -7.78432
upperneck 32.632 -9.45983 3.16142
head 14.0332 -4.25516 1.15051
rclavicle -1.1865e-014 2.17669e-014
rhumerus -64.2653 31.525 -108.812
rradius 81.5894
rwrist -8.17157
rhand -3.95166 -12.1478
rfingers 7.12502
rthumb 201.8 139.06
lclavicle -1.1865e-014 2.17669e-014
lhumerus -65.6507 -31.0192 105.278
lradius 82.007
lwrist 15.1797
lhand 1.34992 24.3549
lfingers 7.12502
lthumb 206.883 -127.537
rfemur -37.718 12.9581 24.7106
rtibia 25.6958
rfoot -15.9611 -17.0122
rtoes 9.24259
lfemur -56.4636 -2.14315 -7.65921
ltibia 36.2668
lfoot -7.85658 19.9083
ltoes -10.9563
1260
root -7.83836 17.2689 19.8223 -503.188 69.2481 548.089
lowerback -17.6547 -0.0370165 3.80421
upperback -15.1294 1.20202 0.419894
thorax -6.51655 1.03489 -1.62573
lowerneck -14.1908 -7.88136 -7.71611
upperneck 32.7249 -9.41252 3.08414
head 14.0856 -4.23332 1.11266
rclavicle 1.65488e-014 -3.63776e-014
rhumerus -64.4418 31.4367 -109.082
rradius 81.6766
rwrist -11.5399
rhand -4.14094 -13.1805
rfingers 7.12502
rthumb 201.619 138.006
lclavicle 1.65488e-014 -3.63776e-014
lhumerus -65.7245 -31.1032 105.518
lradius 81.8531
lwrist 15.5929
lhand 1.08726 24.4877
lfingers 7.12502
lthumb 206.631 -127.365
rfemur -37.4388 12.8843 24.5469
rtibia 25.1278
rfoot -15.8497 -16.9849
rtoes 8.88927
lfemur -56.4863 -3.23998 -6.4974
ltibia 34.2798
lfoot -7.4323 20.1713
ltoes -11.1862
1261
root -7.7843 17.2858 19.7687 -503.083 69.2785 547.979
lowerback -17.8237 -0.0101526 3.94574
upperback -15.2066 1.23108 0.325922
thorax -6.51755 1.03917 -1.80124
lowerneck -14.2994 -7.85816 -7.64839
upperneck 32.8003 -9.36957 3.01657
head 14.1312 -4.21281 1.0779
rclavicle 3.55328e-014 -3.97569e-015
rhumerus -64.5592 31.2636 -109.2
rradius 81.7407
rwrist -14.3947
rhand -4.16726 -14.0096
rfingers 7.12502
rthumb 201.593 137.174
lclavicle 3.55328e-014 -3.97569e-015
lhumerus -65.8033 -31.1809 105.758
lradius 81.8108
lwrist 16.2781
lhand 0.733101 24.7017
lfingers 7.12502
lthumb 206.292 -127.1
rfemur -37.1285 12.8106 24.3912
rtibia 24.5379
rfoot -15.7284 -16.9565
rtoes 8.55033
lfemur -56.4831 -4.48087 -5.17716
ltibia 32.3216
lfoot -7.07022 20.5983
ltoes -11.4606
